<svg width="39" height="38" viewBox="0 0 39 38" fill="none" xmlns="http://www.w3.org/2000/svg">
<path d="M13.2227 37.7008C10.9297 37.7008 8.87495 37.3285 7.0584 36.584C5.24186 35.8396 3.78267 34.7377 2.68083 33.2785C1.60877 31.8193 1.04296 30.0623 0.983398 28.0076H9.11319C9.2323 29.169 9.63433 30.0623 10.3193 30.6877C11.0042 31.2833 11.8976 31.5811 12.9994 31.5811C14.131 31.5811 15.0244 31.328 15.6796 30.8217C16.3347 30.2857 16.6623 29.5561 16.6623 28.6329C16.6623 27.8587 16.3943 27.2184 15.8582 26.7122C15.352 26.2059 14.7117 25.789 13.9375 25.4614C13.193 25.1338 12.1209 24.7616 10.7213 24.3447C8.69627 23.7193 7.04351 23.094 5.763 22.4686C4.48248 21.8432 3.38064 20.9201 2.45748 19.6991C1.53432 18.4781 1.07274 16.8849 1.07274 14.9195C1.07274 12.0011 2.12991 9.72299 4.24425 8.08512C6.35859 6.41747 9.11319 5.58365 12.508 5.58365C15.9625 5.58365 18.7468 6.41747 20.8612 8.08512C22.9755 9.72299 24.1071 12.016 24.256 14.9642H15.9922C15.9327 13.9517 15.5604 13.1625 14.8755 12.5967C14.1906 12.0011 13.3121 11.7033 12.24 11.7033C11.3169 11.7033 10.5724 11.9564 10.0066 12.4627C9.44076 12.9392 9.15786 13.639 9.15786 14.5621C9.15786 15.5746 9.63433 16.3638 10.5873 16.9296C11.5402 17.4954 13.0292 18.1059 15.0542 18.761C17.0792 19.446 18.7171 20.1011 19.9678 20.7265C21.2483 21.3519 22.3501 22.2601 23.2733 23.4513C24.1965 24.6425 24.6581 26.1761 24.6581 28.0522C24.6581 29.839 24.1965 31.462 23.2733 32.9212C22.3799 34.3804 21.0696 35.5418 19.3424 36.4054C17.6152 37.269 15.5753 37.7008 13.2227 37.7008Z" fill="#CCBBB8"/>
<path d="M27.1819 32.1171C24.8888 32.1171 22.8341 31.7449 21.0175 31.0004C19.201 30.2559 17.7418 29.1541 16.6399 27.6949C15.5679 26.2357 15.0021 24.4787 14.9425 22.4239H23.0723C23.1914 23.5853 23.5934 24.4787 24.2784 25.1041C24.9633 25.6997 25.8567 25.9975 26.9585 25.9975C28.0901 25.9975 28.9835 25.7443 29.6387 25.2381C30.2938 24.702 30.6214 23.9725 30.6214 23.0493C30.6214 22.275 30.3534 21.6348 29.8173 21.1285C29.3111 20.6223 28.6708 20.2054 27.8966 19.8778C27.1521 19.5502 26.08 19.178 24.6804 18.761C22.6554 18.1357 21.0026 17.5103 19.7221 16.8849C18.4416 16.2596 17.3398 15.3364 16.4166 14.1155C15.4934 12.8945 15.0318 11.3013 15.0318 9.33585C15.0318 6.41747 16.089 4.13934 18.2034 2.50147C20.3177 0.833824 23.0723 0 26.4672 0C29.9216 0 32.7059 0.833824 34.8203 2.50147C36.9346 4.13934 38.0662 6.43236 38.2151 9.38052H29.9514C29.8918 8.36802 29.5195 7.57887 28.8346 7.01306C28.1497 6.41747 27.2712 6.11967 26.1991 6.11967C25.276 6.11967 24.5315 6.3728 23.9657 6.87905C23.3999 7.35552 23.117 8.05534 23.117 8.9785C23.117 9.991 23.5934 10.7802 24.5464 11.346C25.4993 11.9118 26.9883 12.5223 29.0133 13.1774C31.0383 13.8623 32.6762 14.5175 33.9269 15.1428C35.2074 15.7682 36.3093 16.6765 37.2324 17.8677C38.1556 19.0588 38.6172 20.5925 38.6172 22.4686C38.6172 24.2554 38.1556 25.8783 37.2324 27.3375C36.339 28.7967 35.0287 29.9581 33.3015 30.8217C31.5743 31.6853 29.5344 32.1171 27.1819 32.1171Z" fill="#474973"/>
</svg>
