<svg width="488" height="462" viewBox="0 0 488 462" fill="none" xmlns="http://www.w3.org/2000/svg">
<g clip-path="url(#clip0_3_863)">
<path d="M126.809 308.532H87.2863V320.031H126.809V308.532Z" fill="#F4F4F4"/>
<path opacity="0.05" d="M97.7723 308.532H92.5938V320.031H97.7723V308.532Z" fill="#161B33"/>
<path d="M121.758 311.031H100.226V317.845H121.758V311.031Z" fill="white"/>
<path d="M158.333 310.032L121.61 293.993L117.007 304.531L153.73 320.57L158.333 310.032Z" fill="#F4F4F4"/>
<path opacity="0.05" d="M158.333 310.032L121.61 293.993L117.007 304.531L153.73 320.57L158.333 310.032Z" fill="#161B33"/>
<path d="M153.401 307.878L148.589 305.776L143.987 316.314L148.799 318.416L153.401 307.878Z" fill="white"/>
<path d="M145.309 307.071L125.302 298.333L122.574 304.577L142.582 313.315L145.309 307.071Z" fill="white"/>
<path opacity="0.05" d="M158.402 454.201H148.47V460.833H158.402V454.201Z" fill="#161B33"/>
<path opacity="0.05" d="M56.8581 454.201H46.9262V460.833H56.8581V454.201Z" fill="#161B33"/>
<path d="M167.506 320.57H37.8218V453.976H167.506V320.57Z" fill="#F4F4F4"/>
<path opacity="0.03" d="M167.506 320.57H37.8218V453.976H167.506V320.57Z" fill="#161B33"/>
<path d="M191.539 320.57H61.8542V453.976H191.539V320.57Z" fill="#F4F4F4"/>
<path opacity="0.05" d="M182.434 454.201H172.502V460.833H182.434V454.201Z" fill="#161B33"/>
<path opacity="0.05" d="M80.8905 454.201H70.9585V460.833H80.8905V454.201Z" fill="#161B33"/>
<path opacity="0.7" d="M186.671 326.818H66.7227V352.448H186.671V326.818Z" fill="white"/>
<path opacity="0.7" d="M186.671 358.722H66.7227V384.352H186.671V358.722Z" fill="white"/>
<path opacity="0.7" d="M186.671 390.624H66.7227V416.254H186.671V390.624Z" fill="white"/>
<path opacity="0.05" d="M126.697 343.219C128.678 343.219 130.283 341.614 130.283 339.633C130.283 337.652 128.678 336.047 126.697 336.047C124.716 336.047 123.11 337.652 123.11 339.633C123.11 341.614 124.716 343.219 126.697 343.219Z" fill="#161B33"/>
<path opacity="0.05" d="M126.697 375.123C128.678 375.123 130.283 373.517 130.283 371.537C130.283 369.556 128.678 367.951 126.697 367.951C124.716 367.951 123.11 369.556 123.11 371.537C123.11 373.517 124.716 375.123 126.697 375.123Z" fill="#161B33"/>
<path opacity="0.05" d="M126.697 407.026C128.678 407.026 130.283 405.42 130.283 403.44C130.283 401.459 128.678 399.854 126.697 399.854C124.716 399.854 123.11 401.459 123.11 403.44C123.11 405.42 124.716 407.026 126.697 407.026Z" fill="#161B33"/>
<path opacity="0.7" d="M186.671 423.247H66.7227V448.877H186.671V423.247Z" fill="white"/>
<path opacity="0.05" d="M126.697 439.648C128.678 439.648 130.283 438.042 130.283 436.062C130.283 434.081 128.678 432.476 126.697 432.476C124.716 432.476 123.111 434.081 123.111 436.062C123.111 438.042 124.716 439.648 126.697 439.648Z" fill="#161B33"/>
<path d="M0.344416 461.753H487.654C487.745 461.753 487.833 461.716 487.897 461.652C487.962 461.587 487.998 461.499 487.998 461.408C487.998 461.317 487.962 461.229 487.897 461.165C487.833 461.1 487.745 461.064 487.654 461.064H0.344416C0.253071 461.064 0.165468 461.1 0.100877 461.165C0.0362866 461.229 0 461.317 0 461.408C0 461.499 0.0362866 461.587 0.100877 461.652C0.165468 461.716 0.253071 461.753 0.344416 461.753Z" fill="#161B33"/>
<g opacity="0.65">
<path d="M0.344416 461.753H487.654C487.745 461.753 487.833 461.716 487.897 461.652C487.962 461.587 487.998 461.499 487.998 461.408C487.998 461.317 487.962 461.229 487.897 461.165C487.833 461.1 487.745 461.064 487.654 461.064H0.344416C0.253071 461.064 0.165468 461.1 0.100877 461.165C0.0362866 461.229 0 461.317 0 461.408C0 461.499 0.0362866 461.587 0.100877 461.652C0.165468 461.716 0.253071 461.753 0.344416 461.753Z" fill="#161B33"/>
</g>
<path d="M454.679 461.552L455.645 461.366L440.542 311.291L439.576 311.477L454.679 461.552Z" fill="#494949"/>
<path d="M398.442 461.552L399.408 461.366L384.305 311.291L383.339 311.477L398.442 461.552Z" fill="#494949"/>
<path d="M274.133 461.552L273.167 461.366L288.27 311.291L289.236 311.477L274.133 461.552Z" fill="#494949"/>
<path d="M330.37 461.552L329.404 461.366L344.506 311.291L345.473 311.477L330.37 461.552Z" fill="#494949"/>
<path d="M350.395 245.239L341.572 311.316L342.547 311.446L351.37 245.369L350.395 245.239Z" fill="#494949"/>
<path d="M451.664 245.238L442.841 311.316L443.817 311.446L452.64 245.369L451.664 245.238Z" fill="#494949"/>
<path d="M341.661 316.223H440.715C443.387 316.223 445.554 314.056 445.554 311.384V311.383C445.554 308.711 443.387 306.545 440.715 306.545H341.661C338.988 306.545 336.822 308.711 336.822 311.383V311.384C336.822 314.056 338.988 316.223 341.661 316.223Z" fill="#161B33"/>
<path opacity="0.8" d="M341.661 316.223H440.715C443.387 316.223 445.554 314.056 445.554 311.384V311.383C445.554 308.711 443.387 306.545 440.715 306.545H341.661C338.988 306.545 336.822 308.711 336.822 311.383V311.384C336.822 314.056 338.988 316.223 341.661 316.223Z" fill="white"/>
<path d="M336.33 311.386C336.331 309.972 336.893 308.617 337.892 307.617C338.891 306.617 340.247 306.055 341.661 306.053H440.715C442.129 306.053 443.485 306.615 444.484 307.615C445.484 308.614 446.046 309.97 446.046 311.384C446.046 312.798 445.484 314.154 444.484 315.153C443.485 316.153 442.129 316.715 440.715 316.715H341.661C340.248 316.713 338.893 316.151 337.894 315.152C336.894 314.153 336.332 312.799 336.33 311.386ZM341.661 307.039C340.508 307.039 339.402 307.497 338.587 308.312C337.772 309.127 337.314 310.233 337.314 311.386C337.314 312.539 337.772 313.644 338.587 314.46C339.402 315.275 340.508 315.733 341.661 315.733H440.715C441.868 315.733 442.973 315.275 443.788 314.46C444.604 313.644 445.062 312.539 445.062 311.386C445.062 310.233 444.604 309.127 443.788 308.312C442.973 307.497 441.868 307.039 440.715 307.039H341.661Z" fill="#161B33"/>
<path d="M287.295 316.223H386.349C389.021 316.223 391.188 314.056 391.188 311.384V311.383C391.188 308.711 389.021 306.545 386.349 306.545H287.295C284.622 306.545 282.456 308.711 282.456 311.383V311.384C282.456 314.056 284.622 316.223 287.295 316.223Z" fill="white"/>
<path d="M281.963 311.386C281.965 309.973 282.527 308.618 283.526 307.618C284.526 306.619 285.881 306.057 287.295 306.055H386.349C387.762 306.055 389.118 306.617 390.118 307.616C391.118 308.616 391.68 309.972 391.68 311.386C391.68 312.8 391.118 314.156 390.118 315.155C389.118 316.155 387.762 316.717 386.349 316.717H287.295C285.881 316.715 284.526 316.153 283.527 315.154C282.527 314.154 281.965 312.799 281.963 311.386ZM287.295 307.039C286.142 307.039 285.036 307.497 284.221 308.312C283.406 309.127 282.948 310.233 282.948 311.386C282.948 312.539 283.406 313.644 284.221 314.46C285.036 315.275 286.142 315.733 287.295 315.733H386.349C387.501 315.733 388.607 315.275 389.422 314.46C390.238 313.644 390.696 312.539 390.696 311.386C390.696 310.233 390.238 309.127 389.422 308.312C388.607 307.497 387.501 307.039 386.349 307.039H287.295Z" fill="#161B33"/>
<path d="M355.825 245.306H451.891C453.462 245.306 454.979 244.735 456.159 243.698C457.339 242.662 458.102 241.232 458.305 239.674L464.659 190.878C464.778 189.966 464.701 189.039 464.433 188.159C464.165 187.279 463.712 186.466 463.105 185.775C462.498 185.084 461.751 184.53 460.913 184.151C460.075 183.772 459.166 183.575 458.246 183.576H362.178C360.607 183.576 359.09 184.147 357.91 185.184C356.73 186.22 355.967 187.65 355.764 189.208L349.41 238.004C349.291 238.916 349.368 239.843 349.637 240.723C349.905 241.603 350.357 242.416 350.965 243.107C351.572 243.798 352.319 244.352 353.158 244.731C353.996 245.11 354.905 245.306 355.825 245.306Z" fill="#161B33"/>
<path opacity="0.8" d="M355.825 245.306H451.891C453.462 245.306 454.979 244.735 456.159 243.698C457.339 242.662 458.102 241.232 458.305 239.674L464.659 190.878C464.778 189.966 464.701 189.039 464.433 188.159C464.165 187.279 463.712 186.466 463.105 185.775C462.498 185.084 461.751 184.53 460.913 184.151C460.075 183.772 459.166 183.575 458.246 183.576H362.178C360.607 183.576 359.09 184.147 357.91 185.184C356.73 186.22 355.967 187.65 355.764 189.208L349.41 238.004C349.291 238.916 349.368 239.843 349.637 240.723C349.905 241.603 350.357 242.416 350.965 243.107C351.572 243.798 352.319 244.352 353.158 244.731C353.996 245.11 354.905 245.306 355.825 245.306Z" fill="white"/>
<path d="M350.596 243.431C349.943 242.688 349.456 241.813 349.167 240.866C348.879 239.92 348.796 238.922 348.923 237.941L355.278 189.144C355.499 187.47 356.321 185.933 357.59 184.819C358.859 183.704 360.489 183.087 362.178 183.084H458.246C459.236 183.083 460.214 183.295 461.116 183.703C462.018 184.111 462.822 184.707 463.475 185.45C464.128 186.194 464.615 187.069 464.904 188.015C465.192 188.962 465.275 189.96 465.147 190.941L458.793 239.738C458.571 241.412 457.749 242.949 456.48 244.064C455.211 245.178 453.58 245.794 451.891 245.798H355.825C354.836 245.798 353.857 245.587 352.955 245.179C352.054 244.771 351.249 244.175 350.596 243.431ZM362.178 184.068C360.728 184.071 359.328 184.601 358.239 185.558C357.15 186.515 356.445 187.834 356.254 189.272L349.9 238.068C349.79 238.911 349.862 239.767 350.109 240.58C350.357 241.393 350.775 242.144 351.336 242.783C351.897 243.421 352.587 243.933 353.361 244.283C354.136 244.633 354.976 244.815 355.825 244.815H451.891C453.342 244.812 454.742 244.282 455.831 243.326C456.921 242.369 457.627 241.049 457.817 239.611L464.171 190.815C464.281 189.972 464.209 189.116 463.962 188.303C463.714 187.49 463.296 186.739 462.736 186.1C462.175 185.462 461.484 184.95 460.71 184.6C459.936 184.249 459.096 184.068 458.246 184.068L362.178 184.068Z" fill="#161B33"/>
<path d="M350.393 245.306H446.461C448.032 245.306 449.549 244.735 450.729 243.698C451.909 242.662 452.672 241.232 452.875 239.674L459.229 190.878C459.348 189.966 459.271 189.039 459.003 188.159C458.735 187.279 458.282 186.466 457.675 185.775C457.068 185.084 456.321 184.53 455.483 184.151C454.645 183.772 453.736 183.576 452.816 183.576H356.747C355.177 183.576 353.66 184.147 352.48 185.184C351.3 186.22 350.537 187.651 350.334 189.208L343.98 238.004C343.861 238.916 343.938 239.843 344.206 240.723C344.474 241.603 344.927 242.415 345.534 243.106C346.141 243.798 346.888 244.351 347.726 244.731C348.564 245.11 349.473 245.306 350.393 245.306Z" fill="white"/>
<path d="M345.164 243.431C344.511 242.687 344.024 241.813 343.735 240.866C343.447 239.92 343.363 238.922 343.491 237.941L349.845 189.144C350.067 187.47 350.889 185.933 352.158 184.818C353.427 183.704 355.057 183.087 356.747 183.084H452.814C453.803 183.083 454.782 183.295 455.684 183.703C456.585 184.111 457.39 184.707 458.043 185.45C458.696 186.194 459.183 187.069 459.471 188.015C459.759 188.962 459.842 189.96 459.715 190.941L453.361 239.738C453.139 241.412 452.317 242.948 451.049 244.063C449.78 245.177 448.15 245.794 446.462 245.798H350.393C349.403 245.798 348.425 245.587 347.523 245.179C346.621 244.771 345.817 244.175 345.164 243.431ZM356.748 184.068C355.297 184.071 353.897 184.6 352.808 185.557C351.718 186.514 351.013 187.834 350.822 189.272L344.468 238.068C344.358 238.911 344.429 239.767 344.677 240.58C344.924 241.393 345.342 242.144 345.903 242.783C346.464 243.421 347.155 243.933 347.929 244.283C348.703 244.633 349.543 244.815 350.393 244.815H446.462C447.912 244.812 449.312 244.282 450.401 243.326C451.491 242.369 452.197 241.049 452.387 239.611L458.741 190.815C458.851 189.973 458.78 189.116 458.532 188.303C458.285 187.49 457.867 186.739 457.306 186.101C456.745 185.462 456.054 184.95 455.28 184.6C454.506 184.249 453.666 184.068 452.816 184.068L356.748 184.068Z" fill="#161B33"/>
<path d="M364.034 105.018C364.034 105.018 358.363 99.3783 358.302 88.176C358.253 79.502 365.347 86.0884 365.347 86.0884C365.347 86.0884 365.373 79.8425 369.758 81.0637C374.142 82.2848 375.764 89.0714 375.764 89.0714" fill="#161B33"/>
<path d="M392.763 84.946C392.763 84.946 414.614 90.361 402.481 119.313L400.5 119.176L396.48 118.897" fill="#161B33"/>
<path d="M364.715 149.403C364.814 149.389 365.906 167.508 386.958 165.93C401.531 164.838 406.728 149.377 407.062 149.377C405.49 149.043 403.549 148.536 402.777 148.362C401.095 147.971 399.573 147.078 398.411 145.801C397.25 144.524 396.505 142.923 396.275 141.212C395.849 138.644 396.57 125.504 396.349 122.905L373.979 127.898C374.291 133.387 376.479 146.11 368.812 148.362C367.533 148.735 366.158 149.076 364.715 149.403Z" fill="#E98862"/>
<path opacity="0.52" d="M373.662 143.162C374.013 142.033 374.239 140.869 374.335 139.69C374.581 137.001 374.531 134.294 374.188 131.616C378.735 131.002 383.018 129.125 386.552 126.199C386.967 127.733 389.252 134.436 388.618 135.891C387.425 138.65 381.807 143.162 373.662 143.162Z" fill="#161B33"/>
<path d="M377.008 137.877C385.86 138.291 397.083 134.2 398.858 122.352L400.462 111.662C402.238 99.8137 397.456 89.2756 386.3 87.6028C375.144 85.93 365.365 94.2846 363.589 106.132L362.879 110.865C362.663 112.494 362.559 114.137 362.567 115.78C362.556 120.123 362.556 126.73 364.851 131.513C367.016 136.029 371.353 137.612 377.008 137.877Z" fill="#E98862"/>
<path d="M374.437 126.473C372.622 126.308 370.87 125.718 369.325 124.751C369.291 124.733 369.261 124.708 369.238 124.678C369.214 124.648 369.196 124.613 369.186 124.576C369.176 124.539 369.174 124.5 369.179 124.462C369.184 124.424 369.197 124.388 369.217 124.355C369.236 124.322 369.262 124.293 369.293 124.271C369.324 124.248 369.36 124.232 369.397 124.224C369.434 124.215 369.473 124.214 369.511 124.221C369.549 124.227 369.585 124.242 369.617 124.263C372.959 126.263 376.21 126.482 379.024 124.899C379.081 124.865 379.139 124.834 379.2 124.807C379.269 124.781 379.346 124.784 379.413 124.814C379.481 124.843 379.534 124.899 379.562 124.967C379.59 125.036 379.59 125.113 379.562 125.181C379.534 125.25 379.481 125.305 379.413 125.335C379.391 125.345 379.355 125.366 379.303 125.395C377.825 126.231 376.13 126.606 374.437 126.473Z" fill="#161B33"/>
<path d="M374.155 129.158C373.827 129.134 373.5 129.081 373.181 129.001C373.144 128.992 373.11 128.976 373.08 128.954C373.05 128.932 373.025 128.904 373.005 128.872C372.986 128.84 372.973 128.804 372.967 128.768C372.962 128.731 372.964 128.693 372.972 128.657C372.981 128.62 372.997 128.586 373.02 128.556C373.042 128.526 373.07 128.501 373.102 128.481C373.134 128.462 373.169 128.449 373.206 128.443C373.243 128.438 373.281 128.44 373.317 128.449C375.242 128.923 376.297 128.156 376.341 128.123C376.401 128.078 376.477 128.058 376.552 128.068C376.626 128.078 376.694 128.118 376.74 128.178C376.785 128.238 376.805 128.314 376.795 128.388C376.785 128.463 376.745 128.531 376.685 128.576C375.935 129.057 375.041 129.263 374.155 129.158Z" fill="#161B33"/>
<path d="M366.77 111.304C367.537 111.304 368.16 110.682 368.16 109.915C368.16 109.148 367.537 108.526 366.77 108.526C366.003 108.526 365.381 109.148 365.381 109.915C365.381 110.682 366.003 111.304 366.77 111.304Z" fill="#161B33"/>
<path d="M379.69 112.166C380.457 112.166 381.08 111.544 381.08 110.776C381.08 110.009 380.457 109.387 379.69 109.387C378.923 109.387 378.301 110.009 378.301 110.776C378.301 111.544 378.923 112.166 379.69 112.166Z" fill="#161B33"/>
<path d="M397.624 125.858C401.014 126.366 404.307 123.152 404.815 119.761C405.323 116.371 402.855 114.09 399.465 113.581L397.378 115.591L394.71 125.421L397.624 125.858Z" fill="#E98862"/>
<path d="M394.993 119.938C394.993 119.938 396.147 102.987 391.196 101.252C387.899 100.097 379.015 103.781 371.595 101.285C368.348 100.193 365.073 100.584 364.535 102.114C364.322 102.72 363.472 93.4783 369.623 87.3947C374.52 82.551 388.329 82.8855 394.274 85.5079C410.732 92.7688 400.065 114.417 400.065 114.417L398.507 120.102L394.993 119.938Z" fill="#161B33"/>
<path d="M372.927 122.229H372.906C371.813 122.068 369.997 121.676 370.117 120.858C370.215 120.181 373.148 113.141 373.483 112.341C373.496 112.306 373.516 112.273 373.542 112.246C373.568 112.218 373.6 112.196 373.634 112.181C373.669 112.166 373.707 112.158 373.744 112.158C373.782 112.158 373.82 112.165 373.855 112.18C373.89 112.194 373.922 112.216 373.948 112.243C373.975 112.27 373.995 112.302 374.009 112.337C374.023 112.373 374.029 112.411 374.028 112.448C374.027 112.486 374.018 112.524 374.002 112.558C372.701 115.675 370.742 120.479 370.674 120.94C370.753 121.149 371.855 121.505 372.986 121.672C373.058 121.684 373.122 121.722 373.166 121.779C373.209 121.836 373.23 121.908 373.222 121.98C373.214 122.052 373.179 122.118 373.124 122.165C373.069 122.211 372.998 122.235 372.926 122.231L372.927 122.229Z" fill="#161B33"/>
<path d="M371.435 105.356C370.328 104.883 369.113 104.717 367.92 104.876C367.334 104.951 366.763 105.113 366.225 105.357C365.694 105.596 365.195 105.901 364.74 106.264C364.657 106.329 364.601 106.423 364.586 106.527C364.57 106.631 364.595 106.738 364.655 106.824C364.716 106.91 364.807 106.97 364.91 106.991C365.014 107.011 365.121 106.991 365.21 106.935L365.238 106.917C365.652 106.626 366.101 106.389 366.575 106.211C367.04 106.033 367.53 105.927 368.027 105.896C369.006 105.827 369.987 106.017 370.87 106.448L370.906 106.468C371.052 106.542 371.221 106.556 371.376 106.507C371.532 106.457 371.661 106.347 371.736 106.202C371.811 106.057 371.825 105.888 371.775 105.732C371.725 105.577 371.616 105.448 371.47 105.373L371.435 105.356Z" fill="#161B33"/>
<path d="M379.484 107.162C380.418 106.857 381.416 106.804 382.376 107.008C382.865 107.107 383.335 107.28 383.771 107.52C384.215 107.762 384.627 108.059 384.997 108.404L385.021 108.425C385.101 108.494 385.205 108.53 385.311 108.524C385.417 108.518 385.516 108.472 385.589 108.395C385.661 108.317 385.701 108.215 385.699 108.109C385.698 108.003 385.655 107.902 385.581 107.826C385.18 107.403 384.728 107.033 384.235 106.723C383.737 106.407 383.193 106.167 382.623 106.012C381.463 105.69 380.238 105.686 379.076 106.002C378.918 106.046 378.785 106.151 378.705 106.293C378.625 106.435 378.605 106.604 378.649 106.761C378.693 106.918 378.797 107.052 378.94 107.132C379.082 107.212 379.25 107.232 379.408 107.188L379.444 107.176L379.484 107.162Z" fill="#161B33"/>
<path d="M381.394 89.0854C382.674 85.4914 381.732 81.8731 379.29 81.0036C376.848 80.1341 373.831 82.3426 372.551 85.9365C371.271 89.5305 372.213 93.1488 374.655 94.0183C377.097 94.8878 380.114 92.6793 381.394 89.0854Z" fill="#161B33"/>
<path d="M228.483 436.047C228.483 436.047 225.845 449.721 213.041 450.483C200.238 451.245 203.014 461.445 203.014 461.445H251.943V437.001L228.483 436.047Z" fill="#CCBBB8"/>
<path d="M321.568 427.413C321.568 427.413 325.237 440.848 314.084 447.183C302.932 453.519 309.925 461.446 309.925 461.446L353.83 439.847L343.038 417.914L321.568 427.413Z" fill="#CCBBB8"/>
<path d="M348.761 423.619L311.736 306.823H378.848C392.33 306.823 397.95 295.392 397.95 281.912C397.95 268.432 384.697 256.615 371.216 256.615H280.639C272.417 256.615 263.198 261.643 258.685 268.517C254.173 275.39 255.392 286.04 258.662 293.584L317.951 437.576" fill="#262626"/>
<path opacity="0.8" d="M348.761 423.619L311.736 306.823H378.848C392.33 306.823 397.95 295.392 397.95 281.912C397.95 268.432 384.697 256.615 371.216 256.615H280.639C272.417 256.615 263.198 261.643 258.685 268.517C254.173 275.39 255.392 286.04 258.662 293.584L317.951 437.576" fill="#0A0A0A"/>
<path d="M254.757 448.746L316.662 306.823L397.949 306.818C416.996 305.325 425.719 294.887 425.441 281.41C425.168 268.104 418.43 254.961 405.183 254.961H295.625C285.824 255.162 278.113 265.993 274.477 275.096L223.011 440.057" fill="#262626"/>
<path d="M430.987 255.124C430.987 255.124 434.597 278.664 428.875 291.752C421.731 308.091 394.951 306.818 394.951 306.818L396.46 254.962L430.987 255.124Z" fill="#262626"/>
<path d="M272.148 254.661L329.567 242.763C331.959 242.268 334.188 241.176 336.047 239.591C337.906 238.005 339.335 235.976 340.202 233.692L362.786 174.183C363.474 172.397 363.802 170.493 363.751 168.58C363.701 166.667 363.273 164.783 362.492 163.035C361.711 161.288 360.593 159.712 359.201 158.399C357.809 157.085 356.172 156.059 354.382 155.38C352.593 154.701 350.687 154.382 348.774 154.442C346.861 154.502 344.979 154.939 343.236 155.728C341.492 156.517 339.922 157.643 338.615 159.041C337.308 160.439 336.29 162.081 335.619 163.874L315.863 215.927L266.252 226.209C266.252 226.209 271.154 254.867 272.148 254.661Z" fill="#474973"/>
<path d="M338.561 189.295C339.224 197.085 343.924 245.683 344.564 255.278H430.949C431.445 246.624 433.057 209.883 434.939 192.961C436.736 176.812 437.388 167.597 435.318 162.579C431.668 153.728 422.535 150.544 414.667 149.479C409.864 148.829 402.639 148.362 402.639 148.362C402.639 148.362 402.027 160.736 387.439 161.425C367.581 162.36 368.907 148.361 368.809 148.361C365.592 148.361 348.081 150.7 343.703 153.554C337.518 157.585 335.69 163.077 335.618 168.124C335.535 173.936 337.807 180.461 338.561 189.295Z" fill="#A69CAC"/>
<path d="M341.956 229.005H341.977C342.042 229 342.102 228.969 342.144 228.919C342.186 228.869 342.206 228.804 342.201 228.74L339.958 201.801C339.956 201.768 339.948 201.736 339.934 201.707C339.919 201.678 339.899 201.652 339.874 201.631C339.849 201.61 339.82 201.594 339.789 201.585C339.758 201.575 339.725 201.572 339.693 201.576C339.661 201.578 339.629 201.587 339.601 201.602C339.572 201.617 339.546 201.637 339.526 201.662C339.505 201.687 339.489 201.715 339.479 201.746C339.469 201.777 339.466 201.809 339.468 201.841L341.71 228.779C341.715 228.841 341.743 228.899 341.789 228.94C341.834 228.982 341.894 229.005 341.956 229.005Z" fill="#161B33"/>
<path d="M300.811 245.173L281.857 186.91C281.524 185.887 280.876 184.994 280.005 184.361C279.134 183.729 278.085 183.388 277.009 183.387H199.783C198.978 183.387 198.184 183.578 197.467 183.943C196.75 184.309 196.129 184.839 195.656 185.49C195.183 186.141 194.871 186.895 194.745 187.69C194.62 188.485 194.684 189.299 194.933 190.064L213.888 248.328C214.221 249.352 214.87 250.245 215.741 250.877C216.612 251.51 217.661 251.851 218.738 251.851H295.962C296.767 251.851 297.56 251.66 298.277 251.295C298.995 250.929 299.615 250.399 300.088 249.748C300.561 249.096 300.873 248.342 300.999 247.547C301.125 246.752 301.061 245.939 300.811 245.173Z" fill="#161B33"/>
<path d="M300.811 245.173L281.857 186.91C281.524 185.887 280.876 184.994 280.005 184.361C279.134 183.729 278.085 183.388 277.009 183.387H199.783C198.978 183.387 198.184 183.578 197.467 183.943C196.75 184.309 196.129 184.839 195.656 185.49C195.183 186.141 194.871 186.895 194.745 187.69C194.62 188.485 194.684 189.299 194.933 190.064L213.888 248.328C214.221 249.352 214.87 250.245 215.741 250.877C216.612 251.51 217.661 251.851 218.738 251.851H295.962C296.767 251.851 297.56 251.66 298.277 251.295C298.995 250.929 299.615 250.399 300.088 249.748C300.561 249.096 300.873 248.342 300.999 247.547C301.125 246.752 301.061 245.939 300.811 245.173Z" fill="#161B33"/>
<path d="M337.043 247.126H285.349C284.061 247.126 283.017 248.17 283.017 249.458V249.518C283.017 250.806 284.061 251.85 285.349 251.85H337.043C338.331 251.85 339.375 250.806 339.375 249.518V249.458C339.375 248.17 338.331 247.126 337.043 247.126Z" fill="#161B33"/>
<path d="M337.043 247.126H285.349C284.061 247.126 283.017 248.17 283.017 249.458V249.518C283.017 250.806 284.061 251.85 285.349 251.85H337.043C338.331 251.85 339.375 250.806 339.375 249.518V249.458C339.375 248.17 338.331 247.126 337.043 247.126Z" fill="#161B33"/>
<path d="M247.872 228.56C252.345 228.56 255.971 224.934 255.971 220.461C255.971 215.988 252.345 212.362 247.872 212.362C243.399 212.362 239.773 215.988 239.773 220.461C239.773 224.934 243.399 228.56 247.872 228.56Z" fill="white"/>
<path d="M305.132 231.525L318.034 227.003L316.182 226.875C315.585 226.822 315.03 226.544 314.63 226.097C314.23 225.651 314.014 225.069 314.027 224.47C314.044 224.161 314.124 223.859 314.262 223.582C314.4 223.305 314.592 223.058 314.829 222.858C315.065 222.658 315.339 222.508 315.635 222.418C315.931 222.327 316.242 222.298 316.55 222.331L339.375 224.757L338.782 232.091C338.598 234.37 337.738 236.541 336.312 238.327C334.885 240.113 332.958 241.432 330.777 242.115L320.892 245.194C320.382 245.364 319.828 245.353 319.325 245.162C318.823 244.97 318.401 244.611 318.133 244.145C317.899 243.719 317.808 243.229 317.873 242.748C317.937 242.266 318.154 241.818 318.491 241.468C318.461 241.446 318.437 241.416 318.422 241.382C318.411 241.349 318.407 241.314 318.412 241.28C318.417 241.246 318.43 241.213 318.451 241.185L316.63 241.756C316.062 241.947 315.443 241.915 314.897 241.667C314.352 241.418 313.921 240.972 313.692 240.418C313.504 239.916 313.5 239.363 313.68 238.858C313.86 238.353 314.213 237.928 314.676 237.657C314.654 237.646 314.635 237.631 314.62 237.612L313.871 237.847C313.36 238.018 312.805 238.008 312.301 237.817C311.797 237.626 311.375 237.266 311.106 236.799C310.823 236.282 310.751 235.676 310.905 235.107C311.059 234.539 311.427 234.052 311.933 233.749C311.928 233.733 311.926 233.718 311.926 233.702L306.553 235.586C306.287 235.679 306.004 235.719 305.723 235.703C305.441 235.688 305.165 235.616 304.91 235.494C304.397 235.247 304.002 234.806 303.814 234.268C303.625 233.73 303.658 233.139 303.905 232.626C304.152 232.112 304.593 231.718 305.131 231.529L305.132 231.525Z" fill="#E98862"/>
<path opacity="0.2" d="M312.139 233.908C312.164 233.908 312.189 233.904 312.213 233.895L317.409 232.005C317.436 231.996 317.46 231.981 317.481 231.962C317.501 231.943 317.518 231.92 317.53 231.894C317.542 231.869 317.549 231.841 317.55 231.813C317.551 231.785 317.546 231.757 317.537 231.73C317.527 231.704 317.512 231.68 317.493 231.659C317.474 231.638 317.451 231.622 317.426 231.61C317.4 231.598 317.372 231.591 317.344 231.59C317.316 231.589 317.288 231.593 317.262 231.603L312.064 233.493C312.017 233.51 311.977 233.543 311.952 233.587C311.927 233.63 311.918 233.682 311.927 233.731C311.935 233.781 311.961 233.826 312 233.858C312.039 233.89 312.087 233.908 312.138 233.908H312.139Z" fill="#0A0A0A"/>
<path opacity="0.2" d="M314.765 237.685C314.79 237.685 314.814 237.68 314.837 237.672L318.933 236.218C318.96 236.209 318.985 236.195 319.007 236.177C319.028 236.158 319.046 236.135 319.058 236.109C319.071 236.084 319.078 236.056 319.08 236.028C319.082 235.999 319.078 235.971 319.068 235.944C319.059 235.917 319.044 235.892 319.025 235.871C319.006 235.85 318.982 235.833 318.956 235.821C318.931 235.809 318.903 235.802 318.874 235.801C318.846 235.8 318.817 235.805 318.79 235.815L314.694 237.269C314.646 237.286 314.606 237.319 314.581 237.362C314.555 237.406 314.546 237.457 314.554 237.507C314.563 237.556 314.589 237.602 314.627 237.634C314.666 237.667 314.715 237.685 314.765 237.685Z" fill="#0A0A0A"/>
<path opacity="0.2" d="M318.623 241.522C318.649 241.522 318.675 241.517 318.699 241.508L320.618 240.776C320.671 240.756 320.714 240.715 320.737 240.664C320.76 240.612 320.762 240.553 320.741 240.5C320.721 240.447 320.681 240.404 320.629 240.381C320.577 240.358 320.518 240.356 320.465 240.376L318.546 241.108C318.499 241.126 318.46 241.16 318.436 241.204C318.412 241.247 318.403 241.298 318.412 241.347C318.421 241.396 318.447 241.44 318.486 241.472C318.524 241.504 318.572 241.522 318.622 241.522H318.623Z" fill="#0A0A0A"/>
<path d="M329.272 220.415L383.395 220.379L403.871 170.435L434.414 183.276L408.867 242.552L408.618 243.143C407.368 246.024 405.263 248.451 402.588 250.096C399.912 251.741 396.796 252.524 393.661 252.339L328.454 248.487L329.272 220.415Z" fill="#A69CAC"/>
<path d="M394.558 252.611C397.592 252.605 400.559 251.716 403.096 250.052C405.633 248.388 407.63 246.021 408.844 243.24L409.094 242.65L430.861 192.143L430.409 191.946L408.391 243.047C407.156 245.878 405.083 248.262 402.452 249.879C399.821 251.496 396.758 252.269 393.675 252.094L328.707 248.256L329.512 220.663L383.56 220.627L399.305 182.225L398.849 182.039L383.231 220.135L329.034 220.172L328.201 248.719L328.44 248.733L393.647 252.585C393.95 252.602 394.258 252.611 394.558 252.611Z" fill="#161B33"/>
<path d="M118.492 256.567L97.7501 461.903L98.7292 462.001L119.472 256.666L118.492 256.567Z" fill="#494949"/>
<path d="M454.758 256.565L453.779 256.664L474.536 461.998L475.515 461.899L454.758 256.565Z" fill="#494949"/>
<path d="M369 256.565L368.021 256.664L388.777 461.998L389.756 461.899L369 256.565Z" fill="#494949"/>
<path d="M32.7339 256.567L11.9916 461.902L12.9706 462.001L33.713 256.666L32.7339 256.567Z" fill="#494949"/>
<path d="M14.0286 260.647L472.103 260.647C474.33 260.647 476.135 258.842 476.135 256.615C476.135 254.389 474.33 252.584 472.103 252.584L14.0286 252.584C11.8019 252.584 9.99692 254.389 9.99692 256.615C9.99692 258.842 11.8019 260.647 14.0286 260.647Z" fill="#161B33"/>
<path opacity="0.8" d="M14.0286 260.647L472.103 260.647C474.33 260.647 476.135 258.842 476.135 256.615C476.135 254.389 474.33 252.584 472.103 252.584L14.0286 252.584C11.8019 252.584 9.99692 254.389 9.99692 256.615C9.99692 258.842 11.8019 260.647 14.0286 260.647Z" fill="white"/>
<path d="M9.5044 256.615C9.50518 255.416 9.98203 254.266 10.8302 253.417C11.6784 252.569 12.8286 252.093 14.0281 252.092H472.101C473.301 252.092 474.452 252.568 475.3 253.417C476.148 254.265 476.625 255.415 476.625 256.615C476.625 257.815 476.148 258.965 475.3 259.814C474.452 260.662 473.301 261.139 472.101 261.139H14.0281C12.8286 261.138 11.6784 260.661 10.8302 259.813C9.98203 258.965 9.50518 257.815 9.5044 256.615ZM14.0281 253.076C13.0893 253.076 12.189 253.449 11.5252 254.112C10.8614 254.776 10.4884 255.676 10.4884 256.615C10.4884 257.554 10.8614 258.454 11.5252 259.118C12.189 259.782 13.0893 260.155 14.0281 260.155H472.101C473.04 260.155 473.94 259.782 474.604 259.118C475.268 258.454 475.641 257.554 475.641 256.615C475.641 255.676 475.268 254.776 474.604 254.112C473.94 253.449 473.04 253.076 472.101 253.076H14.0281Z" fill="#161B33"/>
<path d="M14.0285 260.647L383.066 260.647C385.293 260.647 387.098 258.842 387.098 256.615C387.098 254.389 385.293 252.584 383.066 252.584L14.0285 252.584C11.8019 252.584 9.99689 254.389 9.99689 256.615C9.99689 258.842 11.8019 260.647 14.0285 260.647Z" fill="white"/>
<path d="M9.5044 256.615C9.50518 255.416 9.98203 254.266 10.8302 253.417C11.6784 252.569 12.8286 252.093 14.0281 252.092H383.066C384.266 252.092 385.417 252.568 386.265 253.417C387.113 254.265 387.59 255.415 387.59 256.615C387.59 257.815 387.113 258.965 386.265 259.814C385.417 260.662 384.266 261.139 383.066 261.139H14.0281C12.8286 261.138 11.6784 260.661 10.8302 259.813C9.98203 258.965 9.50518 257.815 9.5044 256.615ZM14.0281 253.076C13.0893 253.076 12.189 253.449 11.5252 254.112C10.8614 254.776 10.4884 255.676 10.4884 256.615C10.4884 257.554 10.8614 258.454 11.5252 259.118C12.189 259.782 13.0893 260.155 14.0281 260.155H383.066C384.005 260.155 384.905 259.782 385.569 259.118C386.233 258.454 386.606 257.554 386.606 256.615C386.606 255.676 386.233 254.776 385.569 254.112C384.905 253.449 384.005 253.076 383.066 253.076H14.0281Z" fill="#161B33"/>
<path d="M66.9313 422.528C66.9313 422.528 57.6139 436.241 65.872 446.113C74.1301 455.986 64.7719 460.981 64.7719 460.981L31.087 425.257L48.9346 408.428L66.9313 422.528Z" fill="#CCBBB8"/>
<path d="M115.829 202.052C115.829 202.052 147.281 310.223 139.868 326.036C132.58 341.583 66.0644 432.401 66.0644 432.401L42.1437 411.557L101.304 315.62C101.304 315.62 83.7915 260.218 74.3235 231.163C68.616 213.648 59.0127 214.206 58.1005 195.807L115.829 202.052Z" fill="#262626"/>
<path d="M81.0042 323.994L88.7845 315.134L86.7594 367.141L78.088 375.382L81.0042 323.994Z" fill="#0A0A0A"/>
<path d="M79.7156 247.815C79.7156 247.815 75.9905 225.704 79.9744 230.44C92.9288 245.839 94.2184 293.228 94.2184 293.228L79.7156 247.815Z" fill="#0A0A0A"/>
<path d="M101.479 434.899C101.479 434.899 104.126 448.621 116.977 449.386C129.829 450.15 127.04 460.386 127.04 460.386H77.9364V435.856L101.479 434.899Z" fill="#CCBBB8"/>
<path d="M28.1678 199.342C28.1678 199.342 27.9503 198.331 27.8234 204.242C27.7324 208.417 26.0369 223.193 31.8988 246.499C42.8798 290.165 75.7715 443.656 75.7715 443.656L108.036 443.385L77.6092 198L28.1678 199.342Z" fill="#262626"/>
<path d="M27.6684 199.519L27.5631 199.525C27.5631 199.525 27.6389 197.492 27.6684 199.519Z" fill="#333333"/>
<path d="M204.283 102.796C204.089 102.412 203.781 102.097 203.4 101.896C203.019 101.694 202.586 101.616 202.158 101.671C202.162 101.633 202.154 101.595 202.135 101.562C202.115 101.536 202.089 101.516 202.059 101.504C202.029 101.492 201.996 101.488 201.964 101.492L203.406 100.459C203.837 100.164 204.146 99.7227 204.277 99.2171C204.408 98.7115 204.352 98.1755 204.119 97.708C203.874 97.2535 203.468 96.9065 202.981 96.7343C202.494 96.5621 201.96 96.577 201.483 96.7761C201.487 96.756 201.473 96.7363 201.47 96.7156L202.06 96.291C202.466 96.0112 202.762 95.6001 202.898 95.1271C203.035 94.6542 203.004 94.1485 202.811 93.6957C202.684 93.4144 202.496 93.1648 202.26 92.9649C202.025 92.765 201.749 92.6198 201.45 92.5398C201.152 92.4597 200.84 92.4469 200.536 92.5022C200.232 92.5574 199.945 92.6794 199.694 92.8593L198.328 93.8389C198.324 93.8305 198.328 93.8212 198.322 93.8138C198.317 93.8064 198.302 93.8035 198.294 93.7951C198.608 93.4422 198.792 92.9931 198.817 92.5215C198.842 92.0499 198.706 91.5839 198.431 91.1998C197.786 90.1617 196.297 90.3738 195.413 91.007L187.37 96.5631L188.807 94.1425C189.097 93.6767 189.199 93.1185 189.093 92.5805C188.986 92.0425 188.68 91.5649 188.235 91.2441C188 91.0865 187.735 90.9786 187.456 90.9268C187.178 90.8751 186.892 90.8806 186.615 90.9431C186.339 91.0056 186.079 91.1237 185.849 91.2902C185.62 91.4568 185.428 91.6682 185.283 91.9117L177.437 105.125C176.516 106.676 176.236 108.524 176.656 110.277C177.076 112.031 178.163 113.552 179.687 114.516C181.454 115.635 183.515 116.201 185.605 116.141C187.696 116.081 189.721 115.398 191.42 114.179L203.568 105.473C203.971 105.173 204.261 104.745 204.391 104.259C204.521 103.773 204.483 103.258 204.283 102.796Z" fill="#E98862"/>
<g opacity="0.25">
<path d="M190.37 99.3276C190.399 99.3683 190.443 99.3959 190.493 99.4043C190.542 99.4128 190.593 99.4015 190.635 99.3729L198.277 94.0795C198.298 94.0651 198.316 94.0467 198.33 94.0255C198.343 94.0042 198.353 93.9805 198.357 93.9556C198.362 93.9307 198.361 93.9052 198.356 93.8805C198.35 93.8558 198.34 93.8324 198.326 93.8116C198.311 93.7908 198.293 93.7731 198.272 93.7594C198.25 93.7457 198.227 93.7364 198.202 93.7319C198.177 93.7274 198.151 93.7278 198.127 93.7332C198.102 93.7385 198.079 93.7487 198.058 93.7631L190.415 99.0565C190.394 99.0709 190.377 99.0892 190.363 99.1104C190.349 99.1316 190.34 99.1553 190.335 99.1802C190.331 99.205 190.331 99.2305 190.336 99.2553C190.342 99.28 190.352 99.3034 190.366 99.3242L190.37 99.3276Z" fill="#161B33"/>
</g>
<g opacity="0.25">
<path d="M192.611 102.763C192.641 102.803 192.685 102.831 192.735 102.839C192.784 102.847 192.835 102.836 192.876 102.808L201.406 96.9001C201.426 96.8858 201.444 96.8675 201.458 96.8463C201.472 96.825 201.481 96.8013 201.486 96.7765C201.49 96.7516 201.49 96.7261 201.485 96.7014C201.479 96.6767 201.469 96.6533 201.455 96.6325C201.425 96.592 201.38 96.5644 201.331 96.5552C201.281 96.5461 201.23 96.5561 201.187 96.5833L192.658 102.491C192.637 102.505 192.619 102.523 192.606 102.545C192.592 102.566 192.582 102.589 192.578 102.614C192.573 102.639 192.574 102.665 192.579 102.689C192.584 102.714 192.594 102.738 192.609 102.758L192.611 102.763Z" fill="#161B33"/>
</g>
<g opacity="0.25">
<path d="M195.018 106.497C195.047 106.538 195.092 106.565 195.141 106.573C195.191 106.582 195.242 106.57 195.283 106.542L202.087 101.83C202.129 101.801 202.157 101.756 202.166 101.706C202.175 101.656 202.164 101.604 202.135 101.562C202.106 101.52 202.061 101.491 202.011 101.482C201.961 101.473 201.909 101.484 201.867 101.514L195.063 106.225C195.043 106.24 195.025 106.258 195.011 106.279C194.997 106.301 194.988 106.324 194.983 106.349C194.979 106.374 194.979 106.399 194.984 106.424C194.99 106.449 195 106.472 195.014 106.493L195.018 106.497Z" fill="#161B33"/>
</g>
<path d="M172.804 102.115L149.751 141.377L121.62 104.482L98.257 125.542L138.154 177.208L138.416 177.576C140.013 179.763 142.14 181.507 144.598 182.645C147.055 183.783 149.762 184.276 152.463 184.078C155.164 183.88 157.77 182.998 160.035 181.515C162.301 180.032 164.152 177.996 165.413 175.6L198.196 116.236L172.804 102.115Z" fill="#CCBBB8"/>
<path d="M147.49 146.098C147.44 146.098 147.391 146.085 147.347 146.061C147.303 146.036 147.267 146.001 147.24 145.958C147.214 145.915 147.199 145.867 147.198 145.816C147.196 145.766 147.207 145.717 147.229 145.672L149.489 141.244C149.53 141.185 149.591 141.142 149.66 141.124C149.73 141.106 149.804 141.115 149.868 141.147C149.932 141.18 149.982 141.235 150.008 141.302C150.034 141.369 150.035 141.443 150.011 141.511L147.751 145.939C147.726 145.986 147.689 146.027 147.643 146.055C147.597 146.083 147.544 146.098 147.49 146.098Z" fill="#161B33"/>
<path d="M119.998 141.153L119.294 153.554L119.878 153.587L120.582 141.186L119.998 141.153Z" fill="#161B33"/>
<path d="M45.7129 51.4079C45.7129 51.4079 44.6304 65.211 41.4667 70.1866C32.352 84.5111 29.5706 100.712 38.4339 109.296C47.2972 117.879 104.444 118.658 108.999 99.2041C112.834 82.826 105.033 80.9702 103.286 67.4023C102.496 61.2632 100.276 48.3836 100.276 48.3836" fill="#0A0A0A"/>
<path d="M94.4507 96.0947C94.3523 96.0814 93.257 114.247 72.1542 112.663C57.5445 111.569 52.335 96.0686 52.0004 96.0686C53.5749 95.7341 56.2279 95.2475 56.9275 94.8741C59.2282 93.6377 62.0746 92.3516 62.8161 87.8842C63.2436 85.3096 62.5184 72.1373 62.7418 69.5327L85.1692 74.5378C84.8557 80.0398 82.6628 92.7949 90.3497 95.0541C91.6265 95.4251 93.0041 95.7685 94.4507 96.0947Z" fill="#E98862"/>
<path opacity="0.52" d="M85.4816 89.8389C85.1307 88.7068 84.9045 87.5398 84.807 86.3585C84.561 83.6629 84.6105 80.9485 84.9546 78.2637C80.3966 77.6483 76.1025 75.767 72.5601 72.8335C72.1438 74.3715 69.854 81.0907 70.4877 82.5524C71.6877 85.315 77.3174 89.8389 85.4816 89.8389Z" fill="#161B33"/>
<path d="M82.5093 84.1219C73.6588 84.8747 62.2606 81.2063 60.0273 69.4057L58.01 58.7584C55.7767 46.9578 60.1646 36.219 71.2754 34.1162C82.3868 32.0134 92.5023 40.0078 94.7355 51.8084L95.6276 56.5223C96.4857 61.0501 98.3012 82.7783 82.5093 84.1219Z" fill="#E98862"/>
<path d="M92.4629 57.0364C93.2322 57.0364 93.8558 56.4128 93.8558 55.6436C93.8558 54.8743 93.2322 54.2507 92.4629 54.2507C91.6936 54.2507 91.07 54.8743 91.07 55.6436C91.07 56.4128 91.6936 57.0364 92.4629 57.0364Z" fill="#161B33"/>
<path d="M78.1933 58.9419C78.9625 58.9419 79.5862 58.3183 79.5862 57.5491C79.5862 56.7798 78.9625 56.1562 78.1933 56.1562C77.424 56.1562 76.8003 56.7798 76.8003 57.5491C76.8003 58.3183 77.424 58.9419 78.1933 58.9419Z" fill="#161B33"/>
<path d="M86.0243 67.76C86.0316 67.7595 86.0388 67.7585 86.0459 67.7571C86.496 67.6684 86.9408 67.5551 87.3783 67.4176C88.0317 67.2075 88.8874 66.8596 88.7762 66.2697C88.6492 65.5972 85.4339 58.693 85.0678 57.9058C85.0519 57.8718 85.0295 57.8413 85.0019 57.816C84.9742 57.7907 84.9419 57.7711 84.9066 57.7583C84.8714 57.7455 84.834 57.7398 84.7966 57.7415C84.7591 57.7431 84.7224 57.7521 84.6884 57.768C84.6545 57.7839 84.624 57.8063 84.5987 57.8339C84.5734 57.8616 84.5538 57.8939 84.541 57.9291C84.5282 57.9644 84.5225 58.0018 84.5241 58.0392C84.5258 58.0766 84.5348 58.1134 84.5507 58.1473C85.9219 61.088 88.1296 65.9234 88.2153 66.376C88.1415 66.5856 87.057 66.9846 85.9397 67.1962C85.8676 67.2103 85.8037 67.2517 85.7614 67.3118C85.719 67.3718 85.7015 67.4459 85.7124 67.5185C85.7233 67.5912 85.7618 67.6569 85.8199 67.7018C85.878 67.7468 85.9512 67.7676 86.0243 67.76Z" fill="#161B33"/>
<path d="M84.379 72.8547C86.1912 72.6199 87.9229 71.9626 89.4345 70.9359C89.4971 70.8942 89.5408 70.8295 89.556 70.7559C89.5711 70.6822 89.5566 70.6056 89.5156 70.5425C89.4745 70.4795 89.4103 70.4353 89.3368 70.4194C89.2633 70.4035 89.1865 70.4172 89.1231 70.4576C85.8521 72.5885 82.6018 72.9334 79.7254 71.4544C79.6672 71.423 79.6074 71.3946 79.5463 71.3693C79.4753 71.3443 79.3973 71.3484 79.3292 71.3806C79.2612 71.4129 79.2087 71.4707 79.1831 71.5415C79.1575 71.6123 79.161 71.6904 79.1927 71.7587C79.2244 71.827 79.2818 71.88 79.3525 71.9061C79.3751 71.9154 79.4125 71.9356 79.4646 71.9627C80.9775 72.7423 82.6886 73.0528 84.379 72.8547Z" fill="#161B33"/>
<path d="M49.1231 62.4691L59.0836 60.6432C66.6268 57.5929 68.9083 44.5328 68.9083 44.5328C68.9083 44.5328 78.0707 53.4625 100.276 48.3836C100.276 48.3836 95.8234 17.4187 63.0193 26.4223C52.4408 29.3251 44.8498 39.9842 45.7955 54.2296C46.4583 64.2127 49.1231 62.4691 49.1231 62.4691Z" fill="#0A0A0A"/>
<path d="M61.3976 72.8704C58.0208 73.51 54.6003 70.4153 53.9611 67.0387C53.322 63.6622 55.7068 61.2824 59.0836 60.6428L61.2514 62.5758L64.302 72.3203L61.3976 72.8704Z" fill="#E98862"/>
<path d="M87.1023 52.2625C88.088 51.6264 89.2266 51.2672 90.3989 51.2225C90.9756 51.1969 91.5529 51.2579 92.1116 51.4035C92.6648 51.5458 93.1979 51.757 93.6984 52.0323C93.7666 52.0683 93.8182 52.1294 93.8423 52.2028C93.8664 52.2761 93.8612 52.3559 93.8277 52.4254C93.7941 52.4949 93.735 52.5487 93.6626 52.5755C93.5902 52.6023 93.5103 52.6 93.4396 52.5691L93.4179 52.5592C92.9553 52.332 92.466 52.1638 91.9615 52.0584C91.4629 51.9515 90.951 51.9208 90.4431 51.9673C89.4353 52.0516 88.4678 52.4009 87.6386 52.9799L87.612 52.9996C87.5157 53.0634 87.3983 53.0874 87.2846 53.0667C87.1709 53.046 87.0696 52.9822 87.0019 52.8885C86.9342 52.7948 86.9054 52.6785 86.9214 52.5641C86.9375 52.4496 86.9972 52.3458 87.088 52.2743L87.1023 52.2625Z" fill="#161B33"/>
<path d="M78.2193 54.354C77.2375 54.1135 76.2094 54.1371 75.2396 54.4224C74.7494 54.5627 74.2831 54.7762 73.8566 55.0556C73.4241 55.3362 73.0287 55.6701 72.6796 56.0495L72.6639 56.0652C72.6093 56.12 72.5355 56.1513 72.4582 56.1527C72.3809 56.1541 72.306 56.1255 72.2495 56.0727C72.1929 56.02 72.159 55.9473 72.155 55.8701C72.151 55.7929 72.1772 55.7171 72.228 55.6588C72.595 55.2213 73.0157 54.8319 73.4802 54.4997C73.9485 54.1622 74.4648 53.8969 75.0118 53.7125C76.1207 53.3313 77.3116 53.2551 78.4599 53.492C78.5761 53.517 78.6775 53.5871 78.742 53.6869C78.8064 53.7867 78.8286 53.908 78.8036 54.0241C78.7786 54.1403 78.7085 54.2417 78.6087 54.3062C78.5089 54.3706 78.3876 54.3928 78.2715 54.3678L78.2533 54.3634L78.2193 54.354Z" fill="#161B33"/>
<path d="M84.7642 75.5341C85.0926 75.4961 85.4172 75.4302 85.7345 75.3373C85.7705 75.3269 85.8041 75.3095 85.8334 75.2862C85.8628 75.2628 85.8872 75.2339 85.9053 75.2011C85.9235 75.1683 85.9349 75.1323 85.9392 75.095C85.9434 75.0578 85.9402 75.02 85.9298 74.984C85.9194 74.948 85.9021 74.9144 85.8787 74.8851C85.8553 74.8558 85.8264 74.8313 85.7936 74.8132C85.7608 74.7951 85.7248 74.7836 85.6875 74.7794C85.6503 74.7752 85.6126 74.7783 85.5765 74.7887C83.667 75.3383 82.5811 74.6101 82.5353 74.5786C82.4734 74.5351 82.3966 74.518 82.322 74.531C82.2474 74.5441 82.1811 74.5863 82.1376 74.6482C82.094 74.7102 82.0769 74.7869 82.09 74.8615C82.103 74.9361 82.1452 75.0025 82.2072 75.046C82.9775 75.4992 83.8811 75.6717 84.7642 75.5341Z" fill="#161B33"/>
<path d="M59.1052 60.5158L59.0068 60.2403C71.6267 55.71 68.5407 43.3264 68.5083 43.2019L68.7912 43.1276C68.8242 43.2555 71.9829 55.895 59.1052 60.5158Z" fill="#161B33"/>
<path opacity="0.1" d="M77.069 68.6295C78.5261 68.4728 79.614 67.4793 79.4991 66.4105C79.3841 65.3418 78.1096 64.6024 76.6526 64.7592C75.1955 64.9159 74.1076 65.9094 74.2226 66.9782C74.3375 68.047 75.612 68.7863 77.069 68.6295Z" fill="#161B33"/>
<path opacity="0.1" d="M92.4914 64.5409C92.6095 65.608 93.8834 66.3465 95.3403 66.1915C95.5921 66.1644 95.8404 66.1111 96.0812 66.0326C96.1634 64.7628 96.1796 63.5406 96.1575 62.4085C95.7546 62.3031 95.3357 62.2738 94.922 62.3219C93.4647 62.4764 92.3773 63.4678 92.4914 64.5409Z" fill="#161B33"/>
<path d="M120.67 136.087C120.005 143.895 116.772 192.613 116.133 202.232H27.851C27.3535 193.557 25.3224 155.624 23.4355 138.659C21.6347 122.473 18.101 114.367 20.691 109.582C24.9224 101.76 36.4894 97.2411 44.3755 96.1734C49.1915 95.5215 56.4345 95.0541 56.4345 95.0541C56.4345 95.0541 57.0481 107.46 71.671 108.15C91.5778 109.089 90.2483 95.0541 90.3472 95.0541C93.5719 95.0541 111.996 97.0954 116.502 99.767C128.784 107.037 122.081 119.537 120.67 136.087Z" fill="#F1DAC4"/>
<path d="M175.561 141.54L167.409 181.157C167.244 181.962 166.807 182.685 166.173 183.207C165.539 183.728 164.745 184.017 163.923 184.024L107.794 184.502C107.259 184.506 106.729 184.391 106.244 184.164C105.759 183.937 105.331 183.605 104.991 183.192C104.651 182.778 104.408 182.294 104.279 181.774C104.15 181.254 104.139 180.713 104.247 180.188L112.399 140.571C112.564 139.767 113.001 139.043 113.635 138.522C114.269 138 115.063 137.711 115.885 137.704L172.014 137.226C172.549 137.222 173.079 137.337 173.563 137.564C174.048 137.791 174.477 138.123 174.817 138.537C175.157 138.95 175.4 139.435 175.529 139.954C175.657 140.474 175.668 141.016 175.561 141.54Z" fill="#161B33"/>
<path d="M123.222 169.681C123.252 170.203 123.093 170.718 122.773 171.131C122.453 171.544 121.995 171.828 121.482 171.93L119.754 172.311C119.785 172.321 119.813 172.338 119.836 172.362C119.858 172.385 119.874 172.414 119.883 172.446C119.887 172.482 119.879 172.519 119.86 172.551C120.275 172.667 120.644 172.911 120.915 173.247C121.185 173.582 121.345 173.994 121.371 174.425C121.373 174.927 121.206 175.415 120.897 175.81C120.588 176.206 120.154 176.485 119.666 176.604L105.075 179.843C104.329 180.01 103.567 180.095 102.803 180.095C101.1 180.094 99.4224 179.68 97.9152 178.887C96.4081 178.094 95.1164 176.947 94.1515 175.544C93.1283 174.059 92.7248 172.234 93.0267 170.456C93.3287 168.679 94.3123 167.089 95.7683 166.026L108.18 156.953C108.453 156.753 108.771 156.623 109.106 156.573L107.963 162.119L108.268 162.049L108.332 162.037L117.851 160.098C118.911 159.864 120.364 160.251 120.551 161.457C120.651 161.919 120.593 162.402 120.384 162.826C120.176 163.25 119.83 163.591 119.403 163.794C119.409 163.8 119.42 163.806 119.42 163.818C119.42 163.83 119.414 163.836 119.414 163.847L121.06 163.484C121.361 163.417 121.674 163.418 121.974 163.486C122.275 163.555 122.557 163.689 122.8 163.88C123.042 164.07 123.239 164.312 123.377 164.588C123.515 164.864 123.59 165.167 123.597 165.475C123.597 165.968 123.426 166.445 123.115 166.826C122.803 167.207 122.369 167.469 121.886 167.566L121.177 167.724C121.172 167.748 121.177 167.774 121.166 167.789C121.682 167.793 122.179 167.989 122.559 168.338C122.939 168.688 123.175 169.167 123.222 169.681Z" fill="#E98862"/>
<g opacity="0.25">
<path d="M109.939 165.77C109.95 165.819 109.98 165.862 110.022 165.89C110.064 165.917 110.116 165.927 110.165 165.917L119.273 164.048C119.323 164.037 119.367 164.008 119.395 163.965C119.423 163.922 119.433 163.87 119.422 163.82C119.412 163.77 119.382 163.726 119.34 163.698C119.297 163.67 119.245 163.66 119.195 163.671L110.088 165.54C110.038 165.551 109.995 165.581 109.967 165.623C109.939 165.666 109.93 165.717 109.94 165.767L109.939 165.77Z" fill="#161B33"/>
</g>
<g opacity="0.25">
<path d="M110.652 169.809C110.663 169.858 110.693 169.9 110.736 169.928C110.778 169.955 110.829 169.964 110.878 169.954L121.042 167.87C121.092 167.859 121.135 167.829 121.163 167.787C121.19 167.744 121.2 167.692 121.19 167.643C121.178 167.594 121.148 167.551 121.105 167.523C121.063 167.496 121.012 167.486 120.962 167.495L110.799 169.579C110.749 169.59 110.706 169.62 110.678 169.662C110.651 169.705 110.641 169.757 110.651 169.806L110.652 169.809Z" fill="#161B33"/>
</g>
<g opacity="0.25">
<path d="M111.399 174.188C111.41 174.238 111.439 174.281 111.482 174.308C111.524 174.336 111.576 174.346 111.625 174.336L119.732 172.673C119.757 172.669 119.781 172.659 119.802 172.645C119.824 172.631 119.842 172.613 119.856 172.591C119.87 172.57 119.88 172.546 119.885 172.521C119.89 172.496 119.89 172.471 119.885 172.446C119.88 172.421 119.87 172.397 119.855 172.376C119.841 172.355 119.822 172.337 119.801 172.323C119.78 172.309 119.756 172.3 119.731 172.295C119.706 172.291 119.68 172.291 119.655 172.296L111.547 173.959C111.498 173.97 111.454 174 111.427 174.042C111.399 174.085 111.39 174.137 111.4 174.186L111.399 174.188Z" fill="#161B33"/>
</g>
<path d="M104.172 185.616L25.0125 199.92C22.5423 200.189 20.0435 199.882 17.712 199.023C15.3806 198.163 13.2799 196.776 11.5749 194.969C9.86981 193.161 8.60676 190.983 7.88481 188.606C7.16285 186.229 7.00163 183.716 7.4138 181.266L18.4961 115.399C19.204 111.193 21.5536 107.441 25.0282 104.967C26.7486 103.743 28.6934 102.869 30.7516 102.396C32.8097 101.923 34.9409 101.86 37.0235 102.21C39.106 102.56 41.0992 103.318 42.8891 104.438C44.679 105.559 46.2306 107.021 47.4553 108.742C48.6801 110.462 49.554 112.407 50.0271 114.465C50.5003 116.523 50.5634 118.654 50.2129 120.736L42.6584 166.077L100.694 158.789L104.172 185.616Z" fill="#F1DAC4"/>
<path d="M25.012 200.213C24.9419 200.208 24.8759 200.178 24.8259 200.128C24.7759 200.079 24.7452 200.013 24.7392 199.943C24.7333 199.873 24.7526 199.804 24.7935 199.746C24.8345 199.689 24.8945 199.649 24.9628 199.632L103.848 185.377L100.441 159.116L42.6928 166.368C42.6478 166.374 42.6021 166.369 42.5593 166.354C42.5166 166.338 42.478 166.313 42.4468 166.28C42.4151 166.247 42.3915 166.208 42.378 166.164C42.3645 166.121 42.3615 166.074 42.3691 166.029L47.1727 137.051C47.1786 137.013 47.192 136.976 47.2123 136.943C47.2325 136.91 47.2591 136.882 47.2905 136.859C47.3219 136.837 47.3575 136.821 47.3951 136.813C47.4328 136.804 47.4717 136.803 47.5097 136.81C47.5477 136.816 47.584 136.83 47.6167 136.85C47.6493 136.871 47.6777 136.897 47.7 136.929C47.7224 136.96 47.7383 136.995 47.7469 137.033C47.7556 137.07 47.7567 137.109 47.7503 137.147L43.0107 165.739L100.657 158.499C100.733 158.49 100.811 158.512 100.872 158.559C100.933 158.606 100.973 158.676 100.984 158.752L104.464 185.579C104.473 185.653 104.453 185.728 104.409 185.789C104.365 185.849 104.299 185.891 104.226 185.905L25.0646 200.209C25.0472 200.211 25.0296 200.213 25.012 200.213Z" fill="#161B33"/>
<path d="M42.611 165.789L37.5189 166.604L37.6115 167.183L42.7036 166.368L42.611 165.789Z" fill="#161B33"/>
<path d="M310.919 44.7163C310.926 38.7597 309.741 32.8619 307.435 27.37C305.128 21.8782 301.746 16.9031 297.488 12.7376C293.23 8.57209 288.182 5.30034 282.64 3.11487C277.099 0.92939 271.176 -0.125659 265.221 0.0118047C241.044 0.555463 221.516 20.6147 221.585 44.7965C221.596 51.0385 222.92 57.2084 225.47 62.9058C228.02 68.6032 231.739 73.7009 236.387 77.8681C246.387 86.8624 252.324 99.5126 252.308 112.962V113.011L280.038 113.043V112.994C280.053 99.5623 285.988 86.918 296.006 77.9665C300.696 73.7893 304.449 68.6673 307.02 62.9367C309.59 57.2062 310.919 50.9968 310.919 44.7163Z" fill="#0CBC8B"/>
<path d="M279.617 49.1507C279.157 48.5603 278.359 48.1932 277.246 48.0683C275.359 47.8572 273.204 48.9263 271.352 51.0094L271.172 51.2062L271.033 50.9829C270.784 50.5801 270.501 50.1997 270.187 49.8459C268.854 48.3531 266.452 46.8289 262.561 48.0299C261.253 48.4106 260.05 49.0864 259.045 50.0053L258.909 50.1332L258.774 50.0053C258.462 49.7218 258.124 49.4692 257.764 49.251C255.577 47.9182 253.139 48.2375 251.479 48.7403C251.019 48.8808 250.626 49.1846 250.373 49.5947C250.121 50.0048 250.028 50.4929 250.11 50.9671L260.98 113.087C260.998 113.192 261.057 113.285 261.144 113.346C261.23 113.407 261.337 113.431 261.442 113.413C261.546 113.395 261.639 113.336 261.7 113.25C261.761 113.163 261.785 113.056 261.767 112.952L250.896 50.8333C250.846 50.5507 250.901 50.2596 251.051 50.0148C251.201 49.7701 251.435 49.5887 251.71 49.5049C253.214 49.0503 255.412 48.7546 257.348 49.9359C257.666 50.128 257.964 50.3511 258.238 50.6021L258.374 50.726L258.262 50.8697C257.336 52.0916 256.819 53.5746 256.786 55.1073C256.682 57.709 257.811 60.3107 259.303 60.9011C259.591 61.019 259.906 61.0558 260.214 61.0073C260.521 60.9588 260.809 60.8269 261.047 60.626C261.554 60.2108 262.326 59.1136 261.829 56.4362C261.387 54.078 260.624 52.205 259.559 50.8579L259.443 50.7142L259.579 50.5863C260.499 49.7496 261.599 49.1364 262.795 48.7945C265.553 47.9448 267.903 48.4874 269.587 50.3787C269.965 50.8049 270.295 51.2721 270.569 51.7715L270.632 51.8832L270.556 51.987C270.409 52.1838 270.265 52.386 270.125 52.5937C268.514 54.9877 267.228 58.3953 268.218 60.2231C268.413 60.5774 268.706 60.8679 269.062 61.0599C269.418 61.2519 269.822 61.3372 270.225 61.3055H270.261C271.083 61.2937 271.774 60.7471 272.201 59.7734C273.037 57.8699 272.791 54.6419 271.622 52.0923L271.57 51.9806L271.65 51.8847C273.266 49.9295 275.102 48.8402 276.746 48.8402C276.885 48.8402 277.021 48.8481 277.157 48.8599C279.256 49.0995 279.223 50.1883 279.216 50.3123L270.341 112.978C270.334 113.03 270.337 113.082 270.35 113.133C270.363 113.184 270.386 113.232 270.417 113.273C270.449 113.315 270.488 113.35 270.533 113.377C270.579 113.404 270.629 113.421 270.68 113.428C270.785 113.439 270.889 113.411 270.973 113.348C271.056 113.285 271.113 113.192 271.131 113.089L280.002 50.4343C280.045 49.9726 279.907 49.5124 279.617 49.1507ZM261.043 56.5798C261.482 58.938 260.839 59.7641 260.54 60.0076C260.375 60.1503 260.164 60.2295 259.946 60.231C259.827 60.2295 259.709 60.2065 259.599 60.1631C258.569 59.7517 257.483 57.5894 257.581 55.1393C257.622 53.8523 258.029 52.6036 258.755 51.5398L258.91 51.3164L259.078 51.5359C260.102 53.0492 260.773 54.7728 261.043 56.5798ZM271.47 59.4526C271.167 60.1414 270.756 60.4981 270.249 60.506H270.174C269.922 60.5335 269.669 60.4851 269.445 60.367C269.222 60.249 269.039 60.0667 268.92 59.8438C268.232 58.567 269.032 55.6421 270.79 53.0404L271.006 52.7211L271.165 53.0483C272.017 55.2785 272.145 57.9122 271.47 59.4521V59.4526Z" fill="white"/>
<path d="M252.325 112.972L280.056 112.999L280.054 114.62C280.05 118.297 278.586 121.822 275.983 124.42C273.38 127.017 269.852 128.474 266.175 128.471C262.498 128.467 258.972 127.003 256.375 124.4C253.777 121.797 252.32 118.269 252.324 114.592L252.325 112.972Z" fill="#262626"/>
</g>
<defs>
<clipPath id="clip0_3_863">
<rect width="488" height="462" fill="white"/>
</clipPath>
</defs>
</svg>
